<svg version="1.1" xmlns="http://www.w3.org/2000/svg" viewBox="0 0 726 571" width="726" height="571" filter="invert(93%) hue-rotate(180deg)">
  <!-- svg-source:excalidraw -->
  
  <defs>
    <style class="style-fonts">
      @font-face {
        font-family: "Virgil";
        src: url("https://excalidraw.com/Virgil.woff2");
      }
      @font-face {
        font-family: "Cascadia";
        src: url("https://excalidraw.com/Cascadia.woff2");
      }
    </style>
    
  </defs>
  <rect x="0" y="0" width="726" height="571" fill="#ffffff"></rect><g stroke-linecap="round" transform="translate(254 375) rotate(0 144.5 93)"><path d="M32 0 M32 0 C99.2 -2.09, 168.49 -1.25, 257 0 M32 0 C87.36 1.34, 142.96 1.16, 257 0 M257 0 C279.2 1.33, 288.25 11.33, 289 32 M257 0 C276.25 1.77, 289.98 12.17, 289 32 M289 32 C290.28 59.11, 290.5 86.81, 289 154 M289 32 C287.66 70.55, 287.86 109.12, 289 154 M289 154 C290.77 174.44, 280.24 185.44, 257 186 M289 154 C287.05 177.19, 278.1 187.07, 257 186 M257 186 C167.88 187.06, 77.09 184.37, 32 186 M257 186 C193.41 184.76, 129.25 184.82, 32 186 M32 186 C10.88 186.29, 0.21 174.33, 0 154 M32 186 C12.68 183.88, 1.8 176.26, 0 154 M0 154 C-0.25 103.84, -0.37 57.61, 0 32 M0 154 C1.21 128.43, 0.04 103.93, 0 32 M0 32 C0.3 11.08, 9.81 0.66, 32 0 M0 32 C-1.04 12.43, 9.6 -0.52, 32 0" stroke="#e03131" stroke-width="1" fill="none"></path></g><g transform="translate(350.7700424194336 455.5) rotate(0 47.729957580566406 12.5)"><text x="47.729957580566406" y="0" font-family="Virgil, Segoe UI Emoji" font-size="20px" fill="#e03131" text-anchor="middle" style="white-space: pre;" direction="ltr" dominant-baseline="text-before-edge">repo local</text></g><g stroke-linecap="round" transform="translate(10 26) rotate(0 104.5 85)"><path d="M131.25 21.5 M131.25 21.5 C143.3 31.32, 154.58 39.75, 182.75 64.5 M131.25 21.5 C143.43 32.38, 155.04 41.56, 182.75 64.5 M182.75 64.5 C207.39 84.78, 210.2 85.6, 182.75 107.5 M182.75 64.5 C210.81 85.66, 207.67 85.91, 182.75 107.5 M182.75 107.5 C170.26 117.83, 158.7 129.09, 131.25 148.5 M182.75 107.5 C163.72 122.45, 143.22 138.15, 131.25 148.5 M131.25 148.5 C103.12 170.73, 105.57 168.41, 78.75 148.5 M131.25 148.5 C106.54 168.26, 104.66 171.74, 78.75 148.5 M78.75 148.5 C62.88 136.55, 45.76 122.25, 26.25 107.5 M78.75 148.5 C61.26 133.06, 44.01 120.7, 26.25 107.5 M26.25 107.5 C1.42 86.45, 0.97 85.64, 26.25 64.5 M26.25 107.5 C2.22 88.22, 1.97 87.5, 26.25 64.5 M26.25 64.5 C47.71 48.38, 68.31 29.05, 78.75 21.5 M26.25 64.5 C43.8 51.11, 60.29 37.43, 78.75 21.5 M78.75 21.5 C103.52 0.26, 106.76 -0.85, 131.25 21.5 M78.75 21.5 C105.61 -1.57, 105.77 -0.08, 131.25 21.5" stroke="#1971c2" stroke-width="1" fill="none"></path></g><g transform="translate(74.50003814697266 73.5) rotate(0 40.249961853027344 37.5)"><text x="40.249961853027344" y="0" font-family="Virgil, Segoe UI Emoji" font-size="20px" fill="#1971c2" text-anchor="middle" style="white-space: pre;" direction="ltr" dominant-baseline="text-before-edge">GitLab</text><text x="40.249961853027344" y="25" font-family="Virgil, Segoe UI Emoji" font-size="20px" fill="#1971c2" text-anchor="middle" style="white-space: pre;" direction="ltr" dominant-baseline="text-before-edge">remoto: </text><text x="40.249961853027344" y="50" font-family="Virgil, Segoe UI Emoji" font-size="20px" fill="#1971c2" text-anchor="middle" style="white-space: pre;" direction="ltr" dominant-baseline="text-before-edge">origin</text></g><g stroke-linecap="round" transform="translate(507 10) rotate(0 104.5 85)"><path d="M131.25 21.5 M131.25 21.5 C149.76 37.41, 167.16 50.26, 182.75 64.5 M131.25 21.5 C146.12 35.63, 161.44 47.99, 182.75 64.5 M182.75 64.5 C208.2 86.19, 207.08 87.34, 182.75 107.5 M182.75 64.5 C207.07 83.97, 208.21 85.44, 182.75 107.5 M182.75 107.5 C162.51 123.39, 143.24 136.13, 131.25 148.5 M182.75 107.5 C172.36 116.39, 161.95 125.03, 131.25 148.5 M131.25 148.5 C105.01 168.85, 103.54 170.78, 78.75 148.5 M131.25 148.5 C104.47 169.81, 103.94 169.58, 78.75 148.5 M78.75 148.5 C60.05 133.57, 43.56 120.15, 26.25 107.5 M78.75 148.5 C65.97 138.66, 53.85 129.74, 26.25 107.5 M26.25 107.5 C-0.47 85.63, 0.29 84.74, 26.25 64.5 M26.25 107.5 C-0.92 87.95, -0.89 86.94, 26.25 64.5 M26.25 64.5 C45.14 46.46, 65.81 29.39, 78.75 21.5 M26.25 64.5 C44.93 49.62, 64.28 32.59, 78.75 21.5 M78.75 21.5 C103.03 0.42, 104.46 -0.1, 131.25 21.5 M78.75 21.5 C102.73 -1.71, 107.13 -1.12, 131.25 21.5" stroke="#f08c00" stroke-width="1" fill="none"></path></g><g transform="translate(571.5000381469727 57.5) rotate(0 40.249961853027344 37.5)"><text x="40.249961853027344" y="0" font-family="Virgil, Segoe UI Emoji" font-size="20px" fill="#f08c00" text-anchor="middle" style="white-space: pre;" direction="ltr" dominant-baseline="text-before-edge">GitHub</text><text x="40.249961853027344" y="25" font-family="Virgil, Segoe UI Emoji" font-size="20px" fill="#f08c00" text-anchor="middle" style="white-space: pre;" direction="ltr" dominant-baseline="text-before-edge">remoto: </text><text x="40.249961853027344" y="50" font-family="Virgil, Segoe UI Emoji" font-size="20px" fill="#f08c00" text-anchor="middle" style="white-space: pre;" direction="ltr" dominant-baseline="text-before-edge">github</text></g><g mask="url(#mask-mDWWvao-xQJVtqh0lKEuW)" stroke-linecap="round"><g transform="translate(334.6902015901153 380) rotate(0 -99.84322967225887 -92.828395250982)"><path d="M0.91 0.7 C-32.27 -30.41, -166.65 -155.33, -200.18 -186.36 M-0.07 0.02 C-33.22 -30.93, -167.18 -153.69, -200.6 -184.93" stroke="#1971c2" stroke-width="1" fill="none"></path></g><g transform="translate(334.6902015901153 380) rotate(0 -99.84322967225887 -92.828395250982)"><path d="M-171.77 -171.63 C-179.05 -174.03, -183.25 -178.28, -202.4 -186.44 M-172.78 -173.13 C-179.37 -175.62, -185.28 -178.32, -200.57 -184.21" stroke="#1971c2" stroke-width="1" fill="none"></path></g><g transform="translate(334.6902015901153 380) rotate(0 -99.84322967225887 -92.828395250982)"><path d="M-185.7 -156.56 C-190.13 -162.19, -191.44 -169.57, -202.4 -186.44 M-186.71 -158.06 C-190.06 -163.9, -192.74 -170.09, -200.57 -184.21" stroke="#1971c2" stroke-width="1" fill="none"></path></g></g><mask id="mask-mDWWvao-xQJVtqh0lKEuW"><rect x="0" y="0" fill="#fff" width="635.887349320494" height="666.1474600772976"></rect><rect x="213.1116548855705" y="274.4262699613512" fill="#000" width="41.95994567871094" height="25" opacity="1"></rect></mask><g transform="translate(213.1116548855705 274.4262699613512) rotate(0 21.735317032285934 12.74533478766682)"><text x="20.97997283935547" y="0" font-family="Virgil, Segoe UI Emoji" font-size="20px" fill="#1971c2" text-anchor="middle" style="white-space: pre;" direction="ltr" dominant-baseline="text-before-edge">push</text></g><g mask="url(#mask-3ui7eakLWRsPlCX_jNFeC)" stroke-linecap="round"><g transform="translate(178 156) rotate(0 101.34705705354457 107.46656496624462)"><path d="M0.9 0.71 C34.53 36.4, 169.25 178.34, 202.79 213.92 M-0.09 0.04 C33.27 35.86, 167.63 179.06, 201.73 214.89" stroke="#1971c2" stroke-width="1" fill="none"></path></g><g transform="translate(178 156) rotate(0 101.34705705354457 107.46656496624462)"><path d="M176.1 201.08 C183.4 204.89, 194.14 211.34, 199.86 215.2 M175.36 202.07 C183.51 206.27, 192.2 209.82, 200.91 214.94" stroke="#1971c2" stroke-width="1" fill="none"></path></g><g transform="translate(178 156) rotate(0 101.34705705354457 107.46656496624462)"><path d="M191.03 186.99 C192.56 196.34, 197.56 208.2, 199.86 215.2 M190.28 187.98 C193.65 196.79, 197.57 204.83, 200.91 214.94" stroke="#1971c2" stroke-width="1" fill="none"></path></g></g><mask id="mask-3ui7eakLWRsPlCX_jNFeC"><rect x="0" y="0" fill="#fff" width="481" height="471"></rect><rect x="232.69004821777344" y="251" fill="#000" width="93.61990356445312" height="25" opacity="1"></rect></mask><g transform="translate(232.69004821777344 251) rotate(0 46.65700883577114 12.466564966244619)"><text x="46.80995178222656" y="0" font-family="Virgil, Segoe UI Emoji" font-size="20px" fill="#1971c2" text-anchor="middle" style="white-space: pre;" direction="ltr" dominant-baseline="text-before-edge">fetch/pull</text></g><g mask="url(#mask-SxOduWbihyuNzpQDJrCHp)" stroke-linecap="round"><g transform="translate(602.0431403339171 177.44834624065174) rotate(0 -35.44746189485113 96.45386369537448)"><path d="M0.76 -0.67 C-11.36 31.49, -59.77 160.31, -71.66 192.59 M-0.3 1.6 C-12.12 33.89, -57.54 161.5, -69.35 193.57" stroke="#f08c00" stroke-width="1" fill="none"></path></g><g transform="translate(602.0431403339171 177.44834624065174) rotate(0 -35.44746189485113 96.45386369537448)"><path d="M-70.53 162.28 C-71.24 175.75, -70.48 187.29, -71.17 193.1 M-69.83 163.05 C-68.67 172.61, -69.4 183.03, -68.8 194.48" stroke="#f08c00" stroke-width="1" fill="none"></path></g><g transform="translate(602.0431403339171 177.44834624065174) rotate(0 -35.44746189485113 96.45386369537448)"><path d="M-51.24 169.25 C-59.42 180.14, -66.16 188.96, -71.17 193.1 M-50.53 170.02 C-55.47 177.48, -62.34 185.68, -68.8 194.48" stroke="#f08c00" stroke-width="1" fill="none"></path></g></g><mask id="mask-SxOduWbihyuNzpQDJrCHp"><rect x="0" y="0" fill="#fff" width="772.9236097975859" height="471.09872430580526"></rect><rect x="545.6229327627273" y="261.7735352732284" fill="#000" width="41.95994567871094" height="25" opacity="1"></rect></mask><g transform="translate(545.6229327627273 261.7735352732284) rotate(0 20.972745676338718 12.128674662797835)"><text x="20.97997283935547" y="0" font-family="Virgil, Segoe UI Emoji" font-size="20px" fill="#f08c00" text-anchor="middle" style="white-space: pre;" direction="ltr" dominant-baseline="text-before-edge">push</text></g><g mask="url(#mask-ZUEXS30MdUipJLlO-F2aO)" stroke-linecap="round"><g transform="translate(440.09354541079824 372.1295754200178) rotate(0 42.38553015750921 -121.27033313354912)"><path d="M-1.04 0.13 C13.37 -40.17, 71.43 -200.54, 85.81 -240.83 M0.62 -0.84 C15.01 -41.59, 71.37 -202.74, 85.38 -242.68" stroke="#f08c00" stroke-width="1" fill="none"></path></g><g transform="translate(440.09354541079824 372.1295754200178) rotate(0 42.38553015750921 -121.27033313354912)"><path d="M85.97 -211.04 C86.29 -219.45, 84.87 -226.6, 86.41 -244.41 M85.92 -213.47 C84.91 -219.76, 85.7 -226.37, 85.6 -243.45" stroke="#f08c00" stroke-width="1" fill="none"></path></g><g transform="translate(440.09354541079824 372.1295754200178) rotate(0 42.38553015750921 -121.27033313354912)"><path d="M66.6 -217.82 C71.77 -224.39, 75.13 -229.86, 86.41 -244.41 M66.55 -220.26 C70.12 -224.79, 75.52 -229.78, 85.6 -243.45" stroke="#f08c00" stroke-width="1" fill="none"></path></g></g><mask id="mask-ZUEXS30MdUipJLlO-F2aO"><rect x="0" y="0" fill="#fff" width="624.9194820145883" height="713.4936079096747"></rect><rect x="435.6965619304667" y="238.94755917518933" fill="#000" width="93.61990356445312" height="25" opacity="1"></rect></mask><g transform="translate(435.6965619304667 238.94755917518933) rotate(0 46.78251363784074 11.91168311127933)"><text x="46.80995178222656" y="0" font-family="Virgil, Segoe UI Emoji" font-size="20px" fill="#f08c00" text-anchor="middle" style="white-space: pre;" direction="ltr" dominant-baseline="text-before-edge">fetch/pull</text></g></svg>